# xmcd CD database file
#
# Track frame offsets:
#	150
#	18392
#	37733
#	69954
#	93019
#	110858
#	128862
#	147498
#	176757
#
# Disc length: 2591 seconds
#
# Revision: 1
# Processed by: cddbd v1.4PL0 Copyright (c) Steve Scherf et al.
# Submitted via: CDex 1.50beta9
#
DISCID=750a1d09
DTITLE=Lucky_Thompson_&_Dave_Pochonet_All_stars - Jazz in Paris
DYEAR=1956
DGENRE=Jazz
TTITLE0=Fascinating Blues
TTITLE1=I should care
TTITLE2=One for the boys and us
TTITLE3=Home free
TTITLE4=Bluebirds blues
TTITLE5=Lullaby of the leaves
TTITLE6=Easy going
TTITLE7=Let's try again
TTITLE8=Stewin' up a wig
EXTD=YEAR: 1956
EXTT0=
EXTT1=
EXTT2=
EXTT3=
EXTT4=
EXTT5=
EXTT6=
EXTT7=
EXTT8=
PLAYORDER=
